#!OML:ASF F:\VICON\USERDATA\INSTALL\Justin_Nancy\Justin_Nancy.ASF
:FULLY-SPECIFIED
:DEGREES
16
root -12.4334 16.1206 -21.2945 -11.1248 2.78887 -4.38343
lowerback 16.8657 0.592667 -1.31983
upperback 2.50278 0.845002 3.92807
thorax -6.85552 0.493929 4.77901
lowerneck -12.0954 -2.94535 -10.14
upperneck 20.6883 -3.1597 5.56946
head 8.70367 -1.71254 3.2339
rclavicle 4.06266e-015 2.22639e-014
rhumerus -45.2334 11.2352 -97.9532
rradius 104.203
rwrist -8.20175
rhand -13.9753 26.749
rfingers 7.12502
rthumb 12.1529 -2.87798
lclavicle 4.06266e-015 2.22639e-014
lhumerus -61.505 -7.15177 95.0627
lradius 112.122
lwrist 34.886
lhand -19.7115 10.6378
lfingers 7.12502
lthumb 6.61837 40.5144
rfemur -24.6198 -6.05266 16.4996
rtibia 87.7091
rfoot -4.76359 -16.6077
rtoes 8.18289
lfemur -28.3034 6.36732 -27.3659
ltibia 46.6278
lfoot -4.99705 4.43471
ltoes 16.0175
17
root -12.4202 16.0463 -20.857 -10.4638 4.13653 -3.3332
lowerback 16.8155 0.298841 -2.39951
upperback 2.34148 0.239934 3.6033
thorax -6.94576 0.22699 5.18755
lowerneck -12.8755 -2.90362 -10.0137
upperneck 21.1816 -2.99711 5.30111
head 8.9979 -1.65067 3.1419
rclavicle -4.48508e-015 3.49861e-014
rhumerus -45.2318 10.512 -97.8785
rradius 103.253
rwrist -8.26859
rhand -13.6538 26.4674
rfingers 7.12502
rthumb 12.4629 -3.14097
lclavicle -4.48508e-015 3.49861e-014
lhumerus -58.9153 -7.73493 94.6838
lradius 112.23
lwrist 34.9342
lhand -19.9614 10.4879
lfingers 7.12502
lthumb 6.3771 40.3719
rfemur -27.7551 -7.1032 14.7525
rtibia 86.0499
rfoot -5.61089 -15.1682
rtoes 3.29639
lfemur -29.2447 5.46664 -28.8511
ltibia 49.9604
lfoot -7.07482 5.15759
ltoes 15.9148
18
root -12.409 15.9868 -20.4219 -9.78232 5.23683 -2.52955
lowerback 16.6566 0.0918613 -3.24083
upperback 2.2506 -0.196726 3.41616
thorax -6.90573 0.0345668 5.56603
lowerneck -13.4811 -2.86684 -9.80931
upperneck 21.4845 -2.83962 4.89382
head 9.19448 -1.60038 2.98621
rclavicle -6.63444e-015 -3.97569e-015
rhumerus -45.396 10.18 -97.7156
rradius 102.631
rwrist -8.59924
rhand -14.1931 24.5187
rfingers 7.12502
rthumb 11.9429 -5.12065
lclavicle -6.63444e-015 -3.97569e-015
lhumerus -56.2006 -8.22207 94.4254
lradius 112.08
lwrist 34.364
lhand -20.1745 10.6834
lfingers 7.12502
lthumb 6.17135 40.5735
rfemur -30.5311 -7.35455 13.4867
rtibia 83.406
rfoot -6.91169 -13.6273
rtoes -4.12696
lfemur -29.9551 4.57571 -29.8482
ltibia 53.0989
lfoot -8.96276 5.30754
ltoes 14.6948
19
root -12.3895 15.9403 -19.9934 -9.37863 5.9874 -2.11523
lowerback 16.6 -0.0271726 -3.61717
upperback 2.32023 -0.424489 3.36491
thorax -6.76914 -0.0726887 5.77504
lowerneck -13.7964 -2.7545 -9.62737
upperneck 21.3731 -2.64914 4.72171
head 9.19385 -1.50903 2.91612
rclavicle -2.98177e-015 -1.07344e-014
rhumerus -45.5411 10.2748 -97.5782
rradius 102.268
rwrist -8.95387
rhand -14.709 25.0057
rfingers 7.12502
rthumb 11.4454 -4.66194
lclavicle -2.98177e-015 -1.07344e-014
lhumerus -53.5875 -8.68102 94.1749
lradius 111.907
lwrist 33.4571
lhand -20.504 11.088
lfingers 7.12502
lthumb 5.85328 40.9871
rfemur -32.5519 -6.85751 12.6005
rtibia 79.7786
rfoot -7.99298 -11.2342
rtoes -10.9517
lfemur -30.3233 3.8253 -30.2199
ltibia 56.1956
lfoot -10.2386 5.10231
ltoes 9.6673
20
root -12.3593 15.9182 -19.5755 -9.28525 6.30834 -2.29604
lowerback 16.8726 -0.0479883 -3.32865
upperback 2.44021 -0.39184 3.54342
thorax -6.79422 -0.0630396 5.80049
lowerneck -13.8404 -2.76092 -9.6188
upperneck 21.0042 -2.60965 4.55736
head 9.06995 -1.50019 2.85701
rclavicle 7.95139e-016 5.1684e-015
rhumerus -45.8158 10.6976 -97.3172
rradius 102.165
rwrist -9.86068
rhand -15.1429 25.8036
rfingers 7.12502
rthumb 11.0269 -3.8868
lclavicle 7.95139e-016 5.1684e-015
lhumerus -51.7359 -9.11005 94.2562
lradius 112.253
lwrist 32.4963
lhand -21.407 10.8445
lfingers 7.12502
lthumb 4.98138 40.766
rfemur -33.7346 -5.47921 12.277
rtibia 75.1503
rfoot -8.59505 -8.0009
rtoes -15.6227
lfemur -30.5711 3.35388 -29.8021
ltibia 59.3697
lfoot -10.7162 4.54035
ltoes 5.0141
